<svg width="474" height="221" viewBox="0 0 474 221" fill="none" xmlns="http://www.w3.org/2000/svg">
<path d="M260.5 7.5L206 88L209.5 164.5" stroke="#AF93A8" stroke-width="2"/>
<path d="M64.0726 164.5L123.073 154L320.573 157.5C325.073 158.5 335.373 160.5 340.573 160.5C347.073 160.5 361.573 164 367.073 166.5C371.473 168.5 400.239 170.333 414.073 171C422.573 175.5 431.573 174 440.073 174C448.573 174 453.573 178.5 462.573 184C469.773 188.4 446.906 188.833 434.573 188.5C446.173 192.5 443.073 194.167 440.073 194.5L390.073 198C383.906 200.333 364.073 205.8 334.073 209C296.573 213 266.073 204 234.073 209C202.073 214 133.073 202 79.5726 198C26.0726 194 3.57264 184.5 11.5726 184C17.9726 183.6 49.2393 170.833 64.0726 164.5Z" fill="#B5896F" stroke="#B5896F" stroke-width="20"/>
<path d="M75 159L85 149.5C89 145.7 113.333 143.583 125 143L321 151C329.167 152 345.5 154.3 345.5 155.5C371.9 154.3 392.167 160.333 399 163.5C395.8 167.5 388.333 168.5 385 168.5C389 169.3 391 171.5 391.5 172.5C388.5 176.5 370.5 174 369 174C364.6 176.8 353.167 176.167 348 175.5L355.5 178.5C353.5 183.3 337.333 182.833 329.5 182C321 186.5 295 186 285.5 189C276 192 245 186 243.5 186C242.3 186 233 183.333 228.5 182C227.167 183.333 224.7 186 225.5 186C226.5 186 209.5 191 196.5 186C183.5 181 158 184 141.5 182C128.3 180.4 121 175 119 172.5C99 176.5 92.3333 170.833 91.5 167.5C79.5 167.5 75.5 161.833 75 159Z" fill="#48774C" stroke="#48774C" stroke-width="2"/>
<path d="M204 86L208 166H321V154V86L260 4L204 86Z" fill="#DD8798" stroke="#DD8798" stroke-width="2"/>
<path d="M258.819 43.4372L262.028 35.0669L263.763 43.8826C262.147 42.3113 259.793 42.931 258.819 43.4372Z" fill="#D23A23"/>
<path d="M264.106 49.832C265.769 47.8039 265.02 45.4698 264.437 44.5563L272.808 48.0392L264.106 49.832Z" fill="#D23A23"/>
<path d="M260.007 58.9331L258.202 50.1175C260.084 51.7801 262.435 51.0691 263.375 50.5057L260.007 58.9331Z" fill="#D23A23"/>
<path d="M257.643 49.4437C256.163 46.9315 257.255 44.8418 257.985 44.1109L249.272 46.018C252.013 47.0715 257.525 49.2315 257.643 49.4437Z" fill="#D23A23"/>
<path d="M250.563 41.8613C252.253 39.0522 255.621 41.3017 255.907 42.5921C255.669 42.3544 255.445 42.1963 255.233 42.1013C253.44 41.4502 253.297 42.9255 252.641 43.4942C251.865 44.168 249.978 43.8345 250.563 41.8613Z" fill="#366B73"/>
<path d="M271.384 51.9909C269.824 54.8745 266.356 52.7816 266.012 51.5056C266.26 51.7322 266.491 51.8799 266.707 51.9651C268.528 52.5334 268.604 51.053 269.233 50.4549C269.978 49.7463 271.878 49.9929 271.384 51.9909Z" fill="#366B73"/>
<path d="M257.709 36.0219C254.643 37.1828 256.255 40.8992 257.473 41.4107C257.282 41.1343 257.166 40.8855 257.111 40.6601C256.791 38.7798 258.268 38.9018 258.945 38.3585C259.746 37.7149 259.755 35.7992 257.709 36.0219Z" fill="#366B73"/>
<path d="M271.777 43.649C270.433 40.6588 266.821 42.4918 266.384 43.7391C266.649 43.5313 266.89 43.4009 267.112 43.3319C268.969 42.8986 268.936 44.3805 269.52 45.0232C270.211 45.7845 272.123 45.6778 271.777 43.649Z" fill="#366B73"/>
<path d="M264.216 58.1303C267.251 56.8912 265.545 53.2173 264.313 52.7373C264.512 53.0087 264.634 53.2544 264.695 53.4783C265.063 55.3498 263.583 55.2656 262.921 55.8261C262.136 56.4901 262.176 58.4054 264.216 58.1303Z" fill="#366B73"/>
<path d="M249.855 50.2754C250.995 53.3492 254.723 51.7633 255.242 50.5482C254.965 50.7378 254.715 50.8516 254.489 50.9056C252.607 51.213 252.739 49.7366 252.2 49.0561C251.562 48.2501 249.647 48.2279 249.855 50.2754Z" fill="#366B73"/>
<path d="M255.926 57.4686C253.069 55.8607 255.22 52.4283 256.501 52.1055C256.27 52.35 256.119 52.5786 256.03 52.7932C255.431 54.6041 256.91 54.7051 257.498 55.3439C258.194 56.1005 257.915 57.9958 255.926 57.4686Z" fill="#366B73"/>
<path d="M265.717 36.6861C268.648 38.1538 266.666 41.6864 265.401 42.0708C265.62 41.8154 265.76 41.5797 265.839 41.3611C266.349 39.5233 264.867 39.494 264.249 38.8844C263.518 38.1623 263.704 36.2557 265.717 36.6861Z" fill="#366B73"/>
<circle cx="261" cy="47" r="3.49674" stroke="#393A32"/>
<circle cx="261" cy="47" r="12.6321" stroke="#C3920E"/>
<circle cx="261" cy="47" r="13.5" stroke="#393A32"/>
<path d="M226 108H217.5V131.5H226V108Z" fill="#F0B7AE" stroke="#F0B7AE" stroke-width="2"/>
<path d="M257.5 108H251V131.5H257.5V108Z" fill="#DEA8A6"/>
<path d="M227 108H251M251 108H257.5V131.5H251M251 108V131.5M251 131.5H227" stroke="#DEA8A6" stroke-width="2"/>
<path d="M249.5 109.5H227.5V129.5H249.5V109.5Z" fill="#2F5487" stroke="#2F5487" stroke-width="2"/>
<path d="M203 88L141 93.5L145.5 154L207 166L203 88Z" fill="#B44959" stroke="#B44949" stroke-width="2"/>
<path d="M180.5 38.5L138 92L202.5 87.5L260 3L225.5 12L220.5 24.5L202.5 52.5H180.5V38.5Z" fill="#48202B" stroke="#48202B" stroke-width="2"/>
<path d="M182.5 29L194 14.5L201 25.5V51.5H182.5V29Z" fill="#B44959" stroke="#B44959" stroke-width="2"/>
<path d="M224.5 12H194.5L202 24.5H219.5L224.5 12Z" fill="#A9202D" stroke="#A9202D" stroke-width="2"/>
<path d="M202 52.5V25.5H220L202 52.5Z" fill="#DD8798" stroke="#DD8798" stroke-width="2"/>
<path d="M187.5 31L195.5 30V39.25V48.5H187.5V39.75V31Z" fill="#233863"/>
<path d="M195.5 39.25V48.5H187.5V39.75M195.5 39.25V30L187.5 31V39.75M195.5 39.25L187.5 39.75" stroke="#DEA8A6" stroke-width="2"/>
<path d="M280 103.343L265 91V107.971L280 109V103.343Z" fill="#AF93A8" stroke="#AF93A8" stroke-width="2"/>
<path d="M334.5 103.5H282.5V108L333.5 107L334.5 103.5Z" fill="#F0B7AE" stroke="#F0B7AE" stroke-width="2"/>
<path d="M281 103L265 91V89H321L335.5 103H281Z" fill="#CD2025"/>
<path d="M288.5 114H309.5V133.75V153.5H288.5V133.75V114Z" fill="#233863"/>
<path d="M288.5 133.75V153.5H309.5V133.75M288.5 133.75V114H309.5V133.75M288.5 133.75H309.5" stroke="#6F8975" stroke-width="2"/>
<path d="M284 166L283 109.036H287.5V157.714H331.5H333V166H284Z" fill="#F0B7AE"/>
<path d="M327.5 156.161V108H331.5V156.161H327.5Z" fill="#F0B7AE"/>
<path d="M284 166L283 109.036H287.5V157.714H331.5H333V166H284Z" stroke="#F0B7AE" stroke-width="2"/>
<path d="M327.5 156.161V108H331.5V156.161H327.5Z" stroke="#F0B7AE" stroke-width="2"/>
<path d="M265 166H281V156.158L265 155V166Z" fill="#AF93A8" stroke="#AF93A8" stroke-width="2"/>
<path d="M261.5 2L324 87.5" stroke="#48202B" stroke-width="4"/>
<path d="M184 105V137.5L157 135V105H184Z" fill="#233863" stroke="#DEA8A6" stroke-width="2"/>
<line x1="193.794" y1="11.6075" x2="180.794" y2="28.6075" stroke="#A9202D" stroke-width="2"/>
</svg>
